<svg width="32" height="32" viewBox="0 0 32 32" fill="none" xmlns="http://www.w3.org/2000/svg">
  <defs>
    <!-- Medical blue gradient -->
    <linearGradient id="medicalGradient" x1="0%" y1="0%" x2="100%" y2="100%">
      <stop offset="0%" style="stop-color:#3B82F6;stop-opacity:1" />
      <stop offset="100%" style="stop-color:#1E40AF;stop-opacity:1" />
    </linearGradient>
    
    <!-- White gradient for depth -->
    <linearGradient id="whiteGradient" x1="0%" y1="0%" x2="100%" y2="100%">
      <stop offset="0%" style="stop-color:#FFFFFF;stop-opacity:1" />
      <stop offset="100%" style="stop-color:#F8FAFC;stop-opacity:1" />
    </linearGradient>
  </defs>
  
  <!-- Background circle with medical blue gradient -->
  <circle cx="16" cy="16" r="16" fill="url(#medicalGradient)"/>
  
  <!-- Inner circle for depth -->
  <circle cx="16" cy="16" r="14" fill="none" stroke="white" stroke-width="0.5" opacity="0.3"/>
  
  <!-- Medical cross in the center with rounded ends -->
  <rect x="14" y="8" width="4" height="16" rx="2" fill="url(#whiteGradient)"/>
  <rect x="8" y="14" width="16" height="4" rx="2" fill="url(#whiteGradient)"/>
  
  <!-- Cross center circle for medical symbol -->
  <circle cx="16" cy="16" r="3" fill="white" opacity="0.9"/>
  <circle cx="16" cy="16" r="2" fill="url(#medicalGradient)"/>
  
  <!-- Blockchain chain links around the cross -->
  <!-- Top link -->
  <circle cx="16" cy="6" r="2" fill="white" opacity="0.9"/>
  <rect x="15" y="4" width="2" height="2" fill="white" opacity="0.7"/>
  
  <!-- Bottom link -->
  <circle cx="16" cy="26" r="2" fill="white" opacity="0.9"/>
  <rect x="15" y="26" width="2" height="2" fill="white" opacity="0.7"/>
  
  <!-- Left link -->
  <circle cx="6" cy="16" r="2" fill="white" opacity="0.9"/>
  <rect x="4" y="15" width="2" height="2" fill="white" opacity="0.7"/>
  
  <!-- Right link -->
  <circle cx="26" cy="16" r="2" fill="white" opacity="0.9"/>
  <rect x="26" y="15" width="2" height="2" fill="white" opacity="0.7"/>
  
  <!-- Diagonal corner links for blockchain feel -->
  <circle cx="10" cy="10" r="1.5" fill="white" opacity="0.6"/>
  <circle cx="22" cy="10" r="1.5" fill="white" opacity="0.6"/>
  <circle cx="10" cy="22" r="1.5" fill="white" opacity="0.6"/>
  <circle cx="22" cy="22" r="1.5" fill="white" opacity="0.6"/>
  
  <!-- Small accent dots -->
  <circle cx="12" cy="6" r="0.8" fill="white" opacity="0.4"/>
  <circle cx="20" cy="6" r="0.8" fill="white" opacity="0.4"/>
  <circle cx="6" cy="12" r="0.8" fill="white" opacity="0.4"/>
  <circle cx="6" cy="20" r="0.8" fill="white" opacity="0.4"/>
  <circle cx="26" cy="12" r="0.8" fill="white" opacity="0.4"/>
  <circle cx="26" cy="20" r="0.8" fill="white" opacity="0.4"/>
  <circle cx="12" cy="26" r="0.8" fill="white" opacity="0.4"/>
  <circle cx="20" cy="26" r="0.8" fill="white" opacity="0.4"/>
</svg>
